<?xml version="1.0" encoding="UTF-8" standalone="no"?>
<svg
   xmlns:dc="http://purl.org/dc/elements/1.1/"
   xmlns:cc="http://creativecommons.org/ns#"
   xmlns:rdf="http://www.w3.org/1999/02/22-rdf-syntax-ns#"
   xmlns:svg="http://www.w3.org/2000/svg"
   xmlns="http://www.w3.org/2000/svg"
   xmlns:sodipodi="http://sodipodi.sourceforge.net/DTD/sodipodi-0.dtd"
   xmlns:inkscape="http://www.inkscape.org/namespaces/inkscape"
   width="413.70602"
   height="179.45808"
   viewBox="0 0 109.45971 47.481615"
   version="1.1"
   id="svg8"
   sodipodi:docname="cmaranica22.svg"
   inkscape:version="0.92.1 r15371">
  <sodipodi:namedview
     pagecolor="#ffffff"
     bordercolor="#666666"
     borderopacity="1"
     objecttolerance="10"
     gridtolerance="10"
     guidetolerance="10"
     inkscape:pageopacity="0"
     inkscape:pageshadow="2"
     inkscape:window-width="1920"
     inkscape:window-height="1005"
     id="namedview8"
     showgrid="true"
     inkscape:zoom="2.3063517"
     inkscape:cx="252.73067"
     inkscape:cy="86.376422"
     inkscape:window-x="-9"
     inkscape:window-y="-9"
     inkscape:window-maximized="1"
     inkscape:current-layer="svg8"
     fit-margin-top="25"
     fit-margin-left="-1"
     fit-margin-right="-1"
     fit-margin-bottom="0">
    <inkscape:grid
       type="xygrid"
       id="grid4516"
       originx="-0.26490408"
       originy="5.1101787e-006" />
  </sodipodi:namedview>
  <defs
     id="defs2" />
  <metadata
     id="metadata5">
    <rdf:RDF>
      <cc:Work
         rdf:about="">
        <dc:format>image/svg+xml</dc:format>
        <dc:type
           rdf:resource="http://purl.org/dc/dcmitype/StillImage" />
        <dc:title></dc:title>
      </cc:Work>
    </rdf:RDF>
  </metadata>
  <g
     id="layer1"
     transform="translate(-49.363044,-11.317346)">
    <path
       style="fill:#000000;fill-opacity:1;stroke:#000000;stroke-width:0;stroke-miterlimit:4;stroke-dasharray:none;stroke-opacity:1"
       d="m 49.098461,36.819202 c 36.662959,0 73.325919,0 109.988879,0 0,7.326587 0,14.653173 0,21.97976 -36.66296,0 -73.32592,0 -109.988879,0 0,-7.326587 0,-14.653173 0,-21.97976 z"
       id="rect4486-7"
       inkscape:connector-curvature="0" />
    <path
       style="fill:#000000;fill-opacity:1;stroke:#000000;stroke-width:0;stroke-linecap:butt;stroke-linejoin:miter;stroke-miterlimit:4;stroke-dasharray:none;stroke-opacity:1"
       d="m 49.098461,36.754589 c 1.953648,-0.61142 3.112822,-1.030173 3.967662,-1.901767 1.952117,-0.151141 2.952937,-1.438223 5.004973,-1.13393 2.015524,-0.08209 4.138501,0.295017 5.767347,-0.566962 1.977269,-0.28219 3.761925,-1.015755 5.291666,-1.889882 1.694622,-0.82603 3.582763,-2.910198 4.905758,-1.492838 1.70851,0.815202 1.248107,3.241291 2.653766,3.760696 1.789456,1.059321 3.339539,-1.407846 3.02381,-3.304084 1.237252,-2.232723 -2.804273,-3.701269 -2.078869,-0.853655 1.034984,0.982207 3.234232,0.803914 4.157739,-0.377976 1.713805,-0.613251 3.619215,-2.604854 4.724702,-3.212799 0.688309,-1.125607 2.954348,-0.153978 4.157737,-0.944938 1.871433,-0.517874 3.875746,-1.311168 6.04762,-1.13393 1.507227,-0.415593 2.586374,0.882269 3.401788,1.322917 0.48894,0.740632 2.53902,1.039819 4.01439,0.944941 2.53233,0.603157 3.37863,-1.832296 5.1744,-2.815813 0.37371,-0.750881 0.76267,-2.347467 -0.87332,-2.286865 -2.27923,-0.549076 -3.09902,1.848921 -0.56696,1.322917 0.77571,1.333202 -2.30273,1.223642 -2.26786,0.188987 -0.72164,-1.532051 -1.32402,-5.090405 1.4142,-4.346726 1.52082,-0.118927 3.01917,0.375798 3.87747,1.133927 0.42498,0.546652 1.54811,1.281397 2.83482,2.078871 0.73089,1.099174 2.13375,0.523077 3.2128,1.511903 2.25529,0.823783 4.46392,1.043746 6.99256,1.13393 1.04407,0.416617 3.26167,0.08104 3.8254,0.188987 1.45604,-0.126013 2.87832,0.09831 3.16716,1.13393 0.61849,0.218825 0.59016,2.919862 0.56002,4.376254 -1.02027,0.751757 -3.13271,0.68514 -4.1508,0.348448 -0.48717,-0.711171 -1.07121,-3.599996 -0.14334,-3.590775 2.06214,-0.224075 1.51792,0.545986 1.84423,1.889882 -0.0308,1.488899 -2.01807,-1.085904 -1.32291,0 0.26424,0.913881 2.92252,0.49346 2.07887,-1.316498 0.34464,-1.708419 -1.02557,-0.751914 -1.88988,-1.707311 -2.19544,-0.343317 -3.02313,0.361316 -2.83483,2.645833 -0.2239,1.947336 1.09926,1.633904 2.27672,2.255577 0.87896,0.953675 2.16903,1.271702 3.81655,1.146208 2.22012,-0.03231 4.64451,0.109735 6.59001,-0.175965 1.88709,-0.298181 3.00217,-1.034128 5.16006,-0.768976 1.38606,0.214721 2.81571,-0.70448 3.13434,-0.94494 0.89522,-0.160394 1.79811,-1.162147 2.07887,-1.700893 -1.8185,-0.06405 -1.50867,-2.516226 -1.5119,-4.157736 1.12135,-0.863857 3.73683,-0.814355 4.53571,0 0.75581,0.617783 1.43222,2.653554 1.51191,2.267854 0.50305,1.98392 -1.18367,1.62583 -2.07887,2.645834 -0.60158,2.24101 2.37673,2.706925 3.1289,3.044082 1.24309,0.366069 1.25613,1.307209 2.54074,1.869609 0.57551,0.493961 0.64325,0.96039 1.38788,1.836727 0.19943,0.01152 2.20135,1.440921 1.11215,2.414596 -0.35014,0.895987 -2.37557,0.29968 -3.63428,0.473388 -2.83482,0 -5.66964,0 -8.50446,0 -0.81239,0.193184 -2.90398,0.545046 -4.34031,0.377976 -5.04182,0 -10.08364,0 -15.12546,0 -3.05846,-0.431829 -6.30422,-0.07019 -9.43657,-0.18899 -3.75599,0.553201 -7.79992,0.341993 -11.7301,0.377976 -1.14541,-0.283846 -2.90489,0.425855 -4.34031,0.377976 -1.890044,0.19563 -3.643418,-0.444196 -5.109097,-0.944938 -2.765625,-0.765846 -5.888881,-0.539452 -8.882441,-0.566965 -0.91611,1.035547 -2.99265,0.713477 -4.581356,0.755951 -5.654428,0 -11.308857,0 -16.963286,0 -3.172084,-1.008145 -6.669532,-0.395238 -10.016368,-0.566965 -1.621167,0.405081 -3.545794,0.08714 -5.291667,0.18899 -0.566008,-0.465226 -1.296701,-0.307763 -1.699484,-1.12205 z"
       id="path4536"
       inkscape:connector-curvature="0" />
  </g>
  <path
     style="fill:none;stroke:#000000;stroke-width:0.26458332px;stroke-linecap:butt;stroke-linejoin:miter;stroke-opacity:1"
     d="m 96.550475,10.329171 c 0.860533,-0.06381 0.133606,1.2009 -0.324474,0.486714 0.05154,-0.418378 -0.178001,-0.73882 0.324474,-0.486714 z"
     id="path4493"
     inkscape:connector-curvature="0" />
  <path
     style="fill:none;stroke:#000000;stroke-width:0.26458332px;stroke-linecap:butt;stroke-linejoin:miter;stroke-opacity:1"
     d="m 98.25397,10.085815 c -0.07425,-0.64055 1.188851,-0.6762783 0.770634,0.162238 0.02624,0.17689 -0.885764,0.270343 -0.770634,-0.162238 z"
     id="path4495"
     inkscape:connector-curvature="0" />
  <path
     style="fill:none;stroke:#000000;stroke-width:0.26458332px;stroke-linecap:butt;stroke-linejoin:miter;stroke-opacity:1"
     d="m 100.5253,10.207493 c -0.624994,-0.8030578 0.85412,-0.6908226 0.56794,-0.162237 0.2994,0.321657 -0.56402,0.478641 -0.56794,0.162237 z"
     id="path4497"
     inkscape:connector-curvature="0" />
  <path
     style="fill:none;stroke:#000000;stroke-width:0.26458332px;stroke-linecap:butt;stroke-linejoin:miter;stroke-opacity:1"
     d="m 101.86377,11.018682 c -0.33599,-0.96725 1.11491,-0.72369 0.60836,10e-7 -0.33218,-10e-7 -0.36062,1e-6 -0.60836,-10e-7 z"
     id="path4499"
     inkscape:connector-curvature="0" />
  <path
     style="fill:none;stroke:#000000;stroke-width:0.26458332px;stroke-linecap:butt;stroke-linejoin:miter;stroke-opacity:1"
     d="m 102.91831,12.073227 c -0.25653,-0.965074 0.93813,-0.652677 0.48675,0.121679 -0.16632,-0.02447 -0.37795,0.07201 -0.48675,-0.121679 z"
     id="path4501"
     inkscape:connector-curvature="0" />
  <path
     style="fill:none;stroke:#000000;stroke-width:0.26458332px;stroke-linecap:butt;stroke-linejoin:miter;stroke-opacity:1"
     d="m 103.77006,13.533367 c 0.0412,-0.60062 1.20961,-0.408003 0.68981,0.202798 -0.0783,0.202713 -0.56705,0.203958 -0.5274,-0.121678 l -0.16224,-0.08112 z"
     id="path4503"
     inkscape:connector-curvature="0" />
  <path
     style="fill:none;stroke:#000000;stroke-width:0.26458332px;stroke-linecap:butt;stroke-linejoin:miter;stroke-opacity:1"
     d="m 104.25677,15.115185 c 0.84384,-0.645998 0.93875,0.994644 0.0405,0.648954 -0.1769,-0.104962 -0.0217,-0.441187 -0.0405,-0.648954 z"
     id="path4505"
     inkscape:connector-curvature="0" />
  <path
     style="fill:none;stroke:#000000;stroke-width:0.26458332px;stroke-linecap:butt;stroke-linejoin:miter;stroke-opacity:1"
     d="m 103.60782,16.534765 c 0.78542,-0.753774 0.83178,0.721593 0.28388,0.446158 -0.16224,0.107187 -0.17891,-0.130465 -0.28388,-0.446158 z"
     id="path4507"
     inkscape:connector-curvature="0" />
  <path
     style="fill:none;stroke:#000000;stroke-width:0.26458332px;stroke-linecap:butt;stroke-linejoin:miter;stroke-opacity:1"
     d="m 102.35048,16.980919 c 0.4933,-0.589473 0.94685,0.474341 0.40567,0.36504 -0.21304,0.258033 -0.50151,-0.07485 -0.40567,-0.36504 z"
     id="path4509"
     inkscape:connector-curvature="0" />
  <path
     style="fill:none;stroke:#000000;stroke-width:0.26458332px;stroke-linecap:butt;stroke-linejoin:miter;stroke-opacity:1"
     d="m 96.226,11.789311 c -0.580273,-0.26237 -0.537519,0.886472 0.08112,0.56784 0.252117,0.08517 0.191768,-0.640688 -0.08112,-0.56784 z"
     id="path4511"
     inkscape:connector-curvature="0" />
  <path
     style="fill:none;stroke:#000000;stroke-width:0.26458332px;stroke-linecap:butt;stroke-linejoin:miter;stroke-opacity:1"
     d="m 96.469356,13.208891 c -0.707709,-0.154694 -0.385379,0.774078 -0.08112,0.608395 0.23074,0.138519 0.313389,-0.443072 0.08112,-0.608395 z"
     id="path4513"
     inkscape:connector-curvature="0" />
  <path
     style="fill:none;stroke:#000000;stroke-width:0.26458332px;stroke-linecap:butt;stroke-linejoin:miter;stroke-opacity:1"
     d="m 96.550475,14.709591 c -0.547628,-0.05007 -0.444988,0.88149 0.08112,0.64896 0.136648,-0.217266 0.343568,-0.409741 -0.08112,-0.64896 z"
     id="path4515"
     inkscape:connector-curvature="0" />
  <path
     style="fill:none;stroke:#000000;stroke-width:0.26458332px;stroke-linecap:butt;stroke-linejoin:miter;stroke-opacity:1"
     d="m 97.199426,16.129171 c -0.57426,-0.488268 -0.364742,0.824731 0.121681,0.446158 0.08338,0.184645 0.212004,-0.630832 -0.121681,-0.446158 z"
     id="path4517"
     inkscape:connector-curvature="0" />
  <path
     style="fill:#ffffff;fill-opacity:1;stroke:#000000;stroke-width:0;stroke-linecap:butt;stroke-linejoin:miter;stroke-miterlimit:4;stroke-dasharray:none;stroke-opacity:1"
     d="m 100.56549,14.141429 c 0.14637,-0.624798 -0.848173,-0.855261 -1.329384,-0.585374 -0.138307,0.645525 -0.332139,1.717832 0.68927,1.575957 0.622594,0.148039 1.408084,-0.477544 0.640114,-0.990583 z"
     id="path4525"
     inkscape:connector-curvature="0" />
</svg>
