<?xml version="1.0" encoding="UTF-8" standalone="no"?>
<svg
   xmlns:dc="http://purl.org/dc/elements/1.1/"
   xmlns:cc="http://creativecommons.org/ns#"
   xmlns:rdf="http://www.w3.org/1999/02/22-rdf-syntax-ns#"
   xmlns:svg="http://www.w3.org/2000/svg"
   xmlns="http://www.w3.org/2000/svg"
   xmlns:sodipodi="http://sodipodi.sourceforge.net/DTD/sodipodi-0.dtd"
   xmlns:inkscape="http://www.inkscape.org/namespaces/inkscape"
   width="669.98163"
   height="155.57213"
   viewBox="0 0 177.26597 41.161789"
   version="1.1"
   id="svg8"
   sodipodi:docname="cmaranica3.svg"
   inkscape:version="0.92.1 r15371">
  <sodipodi:namedview
     pagecolor="#ffffff"
     bordercolor="#666666"
     borderopacity="1"
     objecttolerance="10"
     gridtolerance="10"
     guidetolerance="10"
     inkscape:pageopacity="0"
     inkscape:pageshadow="2"
     inkscape:window-width="1920"
     inkscape:window-height="1005"
     id="namedview8"
     showgrid="true"
     inkscape:zoom="3.2616738"
     inkscape:cx="528.77733"
     inkscape:cy="95.988485"
     inkscape:window-x="-9"
     inkscape:window-y="-9"
     inkscape:window-maximized="1"
     inkscape:current-layer="svg8"
     fit-margin-top="20"
     fit-margin-left="0"
     fit-margin-right="0"
     fit-margin-bottom="0">
    <inkscape:grid
       type="xygrid"
       id="grid4508" />
  </sodipodi:namedview>
  <defs
     id="defs2" />
  <metadata
     id="metadata5">
    <rdf:RDF>
      <cc:Work
         rdf:about="">
        <dc:format>image/svg+xml</dc:format>
        <dc:type
           rdf:resource="http://purl.org/dc/dcmitype/StillImage" />
        <dc:title />
      </cc:Work>
    </rdf:RDF>
  </metadata>
  <path
     style="fill:#000000;fill-opacity:1;stroke:#000000;stroke-width:0;stroke-linecap:butt;stroke-linejoin:miter;stroke-miterlimit:4;stroke-dasharray:none;stroke-opacity:1"
     d="m 177.27083,27.932624 c -1.32292,0 -3.59508,0.137458 -4.84205,-1.098928 -0.88011,-0.872637 -1.67547,-8.774244 -4.70489,-6.692307 -0.61635,0.423577 -1.8721,2.051435 -2.47412,2.352448 -1.43887,0.719434 -0.87368,1.055698 -2.53103,1.470037 -1.31253,0.328132 -2.01743,1.020642 -3.26898,0.841849 -16.7268,-0.994818 -15.93375,2.149054 -23.68671,1.460139 -2.51856,-1.364229 -6.41629,-1.086105 -9.73426,-1.460139 -3.67122,-1.22374 -8.31249,-2.050747 -12.16783,-1.622376 -4.06216,0.45135 -8.69157,0.597908 -12.49231,-0.162238 -0.7843,-0.15686 -1.462629,-0.812431 -2.109093,-1.135664 -0.435218,-0.217609 -3.198612,-2.922499 -3.534932,-3.258818 -0.675193,-0.675193 -1.492351,-4.047995 -1.791923,-4.946708 -0.515361,0.195454 -1.952099,0.744675 -3.168558,0.441728 -0.393462,0.393463 0.51672,2.925705 0.05905,3.383378 -0.160964,0.160965 -0.227294,0.61683 -0.324474,0.811189 -0.134096,0.268192 -2.326172,2.325713 -2.595806,2.433566 -1.014399,0.40576 -3.821901,-0.09043 -4.380417,-0.648951 -0.289634,-0.289631 -8.255087,0.324476 -9.409792,0.324476 -3.005503,0 -6.504985,0.373396 -9.085313,-0.486713 -0.31533,-0.10511 -0.83903,0.148316 -1.135665,0 -0.335177,-0.16759 -0.562022,-0.712627 -0.648952,-0.973427 -0.146796,-0.440392 -0.826222,-1.165732 -0.973426,-1.46014 -0.34431,-0.68862 -0.537633,-4.116339 -0.162237,-4.867132 1.481685,-2.963373 3.764913,-2.8564143 5.546503,-1.074826 0.17602,0.176019 0.314336,1.546932 0.314336,2.149651 0.119375,0.742917 -1.197069,1.282075 -1.632518,1.206643 -0.03744,0 -0.521071,-0.376734 -0.527271,-0.395454 -0.0687,-0.206096 -0.131818,-0.02549 -0.131818,-0.912588 l 0.09126,-0.69965 c 0,0.216317 0.341374,-0.273776 0.55769,-0.273776 0.66258,0.02615 0.322974,0.487425 0.456294,0.659091 0,0.162238 0.03042,0.476573 0.192657,0.476573 0.02595,0 -0.113907,-1.363471 -0.162237,-1.46014 -0.591273,-0.647355 -0.682798,-0.651793 -1.46014,-0.648951 -0.594097,-0.03772 -1.175101,0.841628 -1.326583,1.576548 -0.231258,1.121956 0.709892,2.962275 1.002108,3.128347 0.905856,0.766815 0.498915,0.369609 1.297901,0.648951 1.745024,0 3.180688,-0.647063 3.845345,-1.976377 0.258077,-0.516155 0.372838,-1.32744 0.372838,-1.917329 0,-0.284285 -0.191919,-1.603695 -0.372838,-1.784616 C 69.615403,10.052926 69.407753,9.0013038 68.608995,8.4402378 68.038043,8.0944389 66.197889,7.0386326 65.620669,6.7588121 65.371757,6.638146 62.068346,5.2633895 58.247996,5.4395388 53.933341,5.6384796 51.189744,6.44865 49.331382,7.7600743 c -0.574137,0.3352139 -1.676823,1.4573959 -1.775619,1.5470234 -0.422394,0.383195 -1.248288,2.6524043 -1.079992,3.3521663 0.39022,1.622508 0.516241,1.835579 1.793612,3.146341 0.468805,0.156268 1.168984,0.401518 1.669896,0.401518 0.376616,0 1.287383,0.167497 1.622377,0 1.455624,-0.727811 1.334942,-3.124249 0.973429,-3.244755 -0.20841,-0.06947 -1.032509,0.132696 -0.973429,0.162238 0.04148,0.02074 0.558209,0.538093 -0.08688,1.011103 -0.0946,0.0946 -1.230293,0.0086 -1.324893,-0.08604 -0.617284,-0.644628 -0.683301,-1.487042 -0.381835,-1.822293 0.12875,-0.208531 0.43593,-1.202958 2.451562,-1.116825 0.820852,0.160761 1.945499,0.275637 2.911281,1.851816 0.104449,0.170464 0,1.115287 0,1.297902 0,3.845631 -0.728911,5.758281 -3.082518,8.111888 -0.09797,0.09797 -0.819573,0 -0.973426,0 -0.292049,0 -1.755605,0.191249 -1.946854,0 -0.85371,-0.85371 -0.125939,-2.109091 -1.946852,-2.109091 -0.332499,0 -0.378576,-0.270376 -0.648951,0 -0.921359,0.921358 -3.194031,1.082927 -4.542657,1.622378 -5.137236,1.636154 -7.403081,2.168701 -9.125873,1.744054 -0.64062,-0.367175 -3.147508,-3.157092 -3.345557,-5.073801 -0.247924,-2.399389 1.460522,-3.279662 2.440525,-2.299658 1.47524,1.475241 0.97273,2.077673 -0.01919,3.875012 -2.032705,1.419341 -4.107133,4.333816 -9.811803,5.025294 C 18.589766,25.303701 7.1257055,28.083971 0,27.932624 V 41.16179 h 177.27083 z"
     id="path4512"
     inkscape:connector-curvature="0"
     sodipodi:nodetypes="cssscsssccssccccsccsssscsccccccccccsccssccsscssccsscccccsscccccccsccccccc" />
  <path
     style="fill:#000000;fill-opacity:1;stroke:#000000;stroke-width:0.26458332px;stroke-linecap:butt;stroke-linejoin:miter;stroke-opacity:1"
     d="m 142.92766,25.646436 c -0.14715,-1.306974 -0.0886,-5.31906 0.86209,-5.878235 0.83161,-1.754372 1.21454,-2.693058 2.35652,-3.074364 0.0175,-0.0088 0.30441,-0.476682 0.32447,-0.486714 0.84955,-0.424772 1.59525,-1.472868 2.47124,-1.910865 0.59199,-0.295993 3.92805,-0.277781 4.98186,0.249122 0.60983,0.304919 1.55014,0.974984 2.21566,1.307744 1.70439,0.852193 2.49907,2.002886 2.49907,4.247705 0,0.192543 0.50015,1.311338 0.64896,1.46014 0.0891,0.08906 0.16223,1.570361 0.16223,1.946853 0,0.232377 0.1479,1.312242 0,1.460139 -0.13195,0.131951 -0.62099,0.229379 -0.81119,0.324475 -0.4211,0.210556 -1.81939,0.417158 -2.10908,-0.162237 -0.39045,-0.780896 -0.29117,-4.022634 -0.64896,-4.380419 -0.50959,-0.50959 -0.30955,-1.60745 -0.81118,-2.10909 -0.0765,-0.07648 -0.248,0.07648 -0.32448,0 -0.21632,-0.216317 -0.2704,-0.594872 -0.48671,-0.811189 -0.3644,-0.364396 -0.96766,-0.643178 -1.29791,-0.973427 -0.25658,-0.256586 -2.74444,-1.311503 -3.40699,-0.648951 -0.76655,0.766554 -1.65613,2.014357 -2.27133,3.244755 -0.0865,0.173054 0.0865,0.475898 0,0.648951 -0.67179,1.343578 -0.62885,3.224657 -1.46014,4.055943 -0.1352,0.135198 0.1352,0.675991 0,0.811189 -0.35107,0.351073 -2.20624,0.850446 -2.89413,0.678475 z"
     id="path4514"
     inkscape:connector-curvature="0"
     sodipodi:nodetypes="ccccccsscscccccccccccccc" />
  <path
     style="fill:#000000;fill-opacity:1;stroke:#000000;stroke-width:0.26458332px;stroke-linecap:butt;stroke-linejoin:miter;stroke-opacity:1"
     d="m 151.21619,22.027404 c 1.16708,0.222662 1.60941,-0.735163 0.85175,-1.439861 -0.48615,-0.761994 -2.26675,0.73428 -0.85175,1.439861 z"
     id="path4516"
     inkscape:connector-curvature="0"
     sodipodi:nodetypes="ccc" />
  <path
     style="fill:none;stroke:#000000;stroke-width:0.26458332px;stroke-linecap:butt;stroke-linejoin:miter;stroke-opacity:1"
     d="m 146.30851,22.757473 c 1.29349,-0.0067 1.44322,-0.339755 2.27133,-0.324476"
     id="path4518"
     inkscape:connector-curvature="0"
     sodipodi:nodetypes="cc" />
  <path
     style="fill:none;stroke:#000000;stroke-width:0.26458332px;stroke-linecap:butt;stroke-linejoin:miter;stroke-opacity:1"
     d="m 147.04872,20.567263 c 0.66202,-0.584822 1.86767,-0.0024 2.40314,0.01014"
     id="path4520"
     inkscape:connector-curvature="0"
     sodipodi:nodetypes="cc" />
  <path
     style="fill:none;stroke:#000000;stroke-width:0.26458332px;stroke-linecap:butt;stroke-linejoin:miter;stroke-opacity:1"
     d="m 147.81935,18.498731 c 0.90178,0.18583 0.9986,0.106294 1.55139,0.334616 0.29123,0.291226 0.4479,0.396493 0.80106,0.608391"
     id="path4522"
     inkscape:connector-curvature="0"
     sodipodi:nodetypes="ccc" />
  <path
     style="fill:none;stroke:#000000;stroke-width:0.26458332px;stroke-linecap:butt;stroke-linejoin:miter;stroke-opacity:1"
     d="m 150.68893,15.882648 c 0.034,0.795064 -0.082,1.864811 0.48671,2.433566"
     id="path4524"
     inkscape:connector-curvature="0" />
  <path
     style="fill:none;stroke:#000000;stroke-width:0.26458332px;stroke-linecap:butt;stroke-linejoin:miter;stroke-opacity:1"
     d="m 153.28473,17.150131 c -0.66866,0.434645 -0.66712,1.099346 -0.97342,1.784615"
     id="path4526"
     inkscape:connector-curvature="0"
     sodipodi:nodetypes="cc" />
  <path
     style="fill:none;stroke:#000000;stroke-width:0.26458332px;stroke-linecap:butt;stroke-linejoin:miter;stroke-opacity:1"
     d="m 155.3634,19.249081 c -0.81086,0.708742 -1.11996,0.600094 -2.07867,0.71993"
     id="path4528"
     inkscape:connector-curvature="0"
     sodipodi:nodetypes="cc" />
  <path
     style="fill:none;stroke:#000000;stroke-width:0.26458332px;stroke-linecap:butt;stroke-linejoin:miter;stroke-opacity:1"
     d="m 156.20501,21.723207 c -0.56802,0.202175 -1.78196,0.278346 -2.38287,-0.01014"
     id="path4530"
     inkscape:connector-curvature="0"
     sodipodi:nodetypes="cc" />
  <path
     style="fill:none;stroke:#000000;stroke-width:0.26458332px;stroke-linecap:butt;stroke-linejoin:miter;stroke-opacity:1"
     d="m 156.85396,23.994535 c -1.24039,-0.0092 -2.51685,-0.305915 -2.98111,-0.872027"
     id="path4532"
     inkscape:connector-curvature="0"
     sodipodi:nodetypes="cc" />
  <path
     style="fill:none;stroke:#000000;stroke-width:0.26458332px;stroke-linecap:butt;stroke-linejoin:miter;stroke-opacity:1"
     d="m 147.52442,24.907371 c 0.72423,-0.680986 0.6265,-0.628288 1.81503,-1.38916"
     id="path4518-1"
     inkscape:connector-curvature="0"
     sodipodi:nodetypes="cc" />
  <path
     style="fill:#000000;fill-opacity:1;stroke:#000000;stroke-width:0.26458332px;stroke-linecap:butt;stroke-linejoin:miter;stroke-opacity:1"
     d="m 90.946661,14.831437 c -3.404394,0.231587 -1.73088,-3.854984 -1.522767,-3.897041 1.864517,-3.4994136 9.063101,-1.5793503 4.786013,3.204196 -0.679477,0.759936 -4.43745,0.653255 -3.60979,0.790909 1.420298,0.23622 3.935677,-3.146609 2.362289,-3.81424 -1.322946,-0.340703 -3.258768,2.241275 0.01044,2.131024 1.48453,-0.736182 -0.445708,2.451062 -2.026182,1.585152 z"
     id="path4553"
     inkscape:connector-curvature="0"
     sodipodi:nodetypes="ccssccc" />
  <path
     style="fill:none;stroke:#000000;stroke-width:0.21423838px;stroke-linecap:butt;stroke-linejoin:miter;stroke-opacity:1"
     d="m 88.958673,14.832223 c -0.113649,-0.01034 -0.18589,0.269603 -0.132658,0.374006 0.04474,0.08776 0.100175,0.03319 0.149239,0.08131 0.179552,0.176074 0.415808,-0.307736 0.29848,-0.42279 -0.03043,-0.02984 -0.112959,-0.01321 -0.149239,-0.04878 -0.03425,-0.03359 -0.07568,-0.05004 -0.165822,0.01626 z"
     id="path4557"
     inkscape:connector-curvature="0" />
  <path
     style="fill:none;stroke:#000000;stroke-width:0.26458332px;stroke-linecap:butt;stroke-linejoin:miter;stroke-opacity:1"
     d="m 88.125991,13.895235 c -0.301551,0.15133 0.02135,0.749264 0.263636,0.506993 0.322625,-0.322624 -0.171254,-0.506993 -0.263636,-0.506993 z"
     id="path4559"
     inkscape:connector-curvature="0" />
  <path
     style="fill:none;stroke:#000000;stroke-width:0.26458332px;stroke-linecap:butt;stroke-linejoin:miter;stroke-opacity:1"
     d="m 87.882634,12.191739 c -0.395772,0.03529 -0.0786,0.828949 0.182518,0.567832 0.179832,-0.179831 0.102354,-0.567832 -0.182518,-0.567832 z"
     id="path4561"
     inkscape:connector-curvature="0" />
  <path
     style="fill:none;stroke:#000000;stroke-width:0.26458332px;stroke-linecap:butt;stroke-linejoin:miter;stroke-opacity:1"
     d="m 88.916901,8.8050253 c -0.130492,0.042531 -0.110651,0.079342 -0.162237,0.1825175 -0.115477,0.2309532 0.25299,0.5176382 0.425874,0.3447552 0.15721,-0.1572103 0.106124,-0.7121537 -0.263637,-0.5272727 z"
     id="path4569"
     inkscape:connector-curvature="0" />
  <path
     style="fill:none;stroke:#000000;stroke-width:0.26458332px;stroke-linecap:butt;stroke-linejoin:miter;stroke-opacity:1"
     d="m 90.863754,7.7910397 c -0.165794,-0.00924 -0.242377,-0.00196 -0.304197,0.1216782 -0.04886,0.097716 -0.108858,0.3170147 -0.02027,0.4055943 0.05837,0.05837 0.415901,0.02028 0.405593,0.02028 -0.09391,0 0.09996,-0.1593596 0.141959,-0.2433566 0.07153,-0.1430562 -0.02299,-0.4042415 -0.223078,-0.3041956 z"
     id="path4571"
     inkscape:connector-curvature="0" />
  <path
     style="fill:none;stroke:#000000;stroke-width:0.26458332px;stroke-linecap:butt;stroke-linejoin:miter;stroke-opacity:1"
     d="M 93.19592,7.5476829 C 92.397783,7.4819749 93.01772,8.2937155 93.358157,7.9532772 93.474264,7.8371709 93.338447,7.5120493 93.19592,7.5476829 Z"
     id="path4573"
     inkscape:connector-curvature="0" />
  <path
     style="fill:none;stroke:#000000;stroke-width:0.26458332px;stroke-linecap:butt;stroke-linejoin:miter;stroke-opacity:1"
     d="m 95.264452,8.2574732 c -0.166502,-0.099578 -0.374356,0.2745946 -0.263636,0.3853145 0.04137,0.041372 0.347755,0.098397 0.385313,0.060839 0.03205,-0.032053 0.02027,-0.243346 0.02027,-0.2433566 0,-0.1710108 0.02178,-0.1209339 -0.141957,-0.202797 z"
     id="path4575"
     inkscape:connector-curvature="0" />
  <path
     style="fill:none;stroke:#000000;stroke-width:0.26458332px;stroke-linecap:butt;stroke-linejoin:miter;stroke-opacity:1"
     d="m 96.318997,10.082648 c -0.642088,0.105088 -0.0689,0.697577 0.16224,0.466433 0.18288,-0.18288 0.0055,-0.424505 -0.16224,-0.466433 z"
     id="path4581"
     inkscape:connector-curvature="0" />
  <path
     style="fill:none;stroke:#000000;stroke-width:0.26458332px;stroke-linecap:butt;stroke-linejoin:miter;stroke-opacity:1"
     d="m 96.339278,11.887543 c -0.116284,-4.2e-5 -0.159736,0.0989 -0.223078,0.162238 -0.182139,0.18214 0.208704,0.460528 0.344755,0.324475 0.124746,-0.124746 0.168188,-0.559179 -0.121677,-0.486713 z"
     id="path4583"
     inkscape:connector-curvature="0" />
  <path
     style="fill:none;stroke:#000000;stroke-width:0.26458332px;stroke-linecap:butt;stroke-linejoin:miter;stroke-opacity:1"
     d="m 95.730885,13.084047 c -0.78903,0.175704 0.202798,1.193502 0.202798,0.162238 0,-0.0906 -0.118362,-0.04965 -0.202798,-0.162238 z"
     id="path4585"
     inkscape:connector-curvature="0" />
  <path
     style="fill:none;stroke:#000000;stroke-width:0.26458332px;stroke-linecap:butt;stroke-linejoin:miter;stroke-opacity:1"
     d="m 94.919696,14.118312 c -0.29782,0.05169 -0.300027,0.466433 0.08112,0.466433 0.02252,0 0.12762,0.01434 0.14196,0 0.165484,-0.165482 -0.117959,-0.440153 -0.223078,-0.466433 z"
     id="path4587"
     inkscape:connector-curvature="0" />
  <path
     style="fill:none;stroke:#000000;stroke-width:0.26458332px;stroke-linecap:butt;stroke-linejoin:miter;stroke-opacity:1"
     d="m 90.122374,15.178857 c -0.642088,0.105089 -0.0689,0.697578 0.16224,0.466434 0.18288,-0.182881 0.0055,-0.424506 -0.16224,-0.466434 z"
     id="path4581-8"
     inkscape:connector-curvature="0" />
  <path
     style="fill:none;stroke:#000000;stroke-width:0.26458332px;stroke-linecap:butt;stroke-linejoin:miter;stroke-opacity:1"
     d="m 88.195801,10.433403 c -0.642088,0.105088 -0.0689,0.697577 0.16224,0.466433 0.18288,-0.18288 0.0055,-0.424505 -0.16224,-0.466433 z"
     id="path4581-5"
     inkscape:connector-curvature="0" />
  <path
     style="fill:#000000;fill-opacity:1;stroke:#000000;stroke-width:0.61781609px;stroke-linecap:butt;stroke-linejoin:miter;stroke-opacity:1"
     d="m 31.286458,11.698824 c -0.312472,-0.0381 -0.368398,0.09722 -0.479822,0.359857 -0.06773,0.159677 -0.411195,0.851998 -0.218101,1.079571 0.07526,0.0887 0.957255,0.516894 1.177741,0.257041 0.492526,-0.580463 0.208424,-1.696469 -0.479818,-1.696469 z"
     id="path4610"
     inkscape:connector-curvature="0" />
</svg>
