<?xml version="1.0" encoding="UTF-8" standalone="no"?>
<!-- Created with Inkscape (http://www.inkscape.org/) -->

<svg
   xmlns:dc="http://purl.org/dc/elements/1.1/"
   xmlns:cc="http://creativecommons.org/ns#"
   xmlns:rdf="http://www.w3.org/1999/02/22-rdf-syntax-ns#"
   xmlns:svg="http://www.w3.org/2000/svg"
   xmlns="http://www.w3.org/2000/svg"
   xmlns:sodipodi="http://sodipodi.sourceforge.net/DTD/sodipodi-0.dtd"
   xmlns:inkscape="http://www.inkscape.org/namespaces/inkscape"
   width="45.951157mm"
   height="48.257401mm"
   viewBox="0 0 45.951157 48.257401"
   version="1.1"
   id="svg8"
   inkscape:version="0.92.1 r15371"
   sodipodi:docname="NA_bezokrajov.svg">
  <defs
     id="defs2" />
  <sodipodi:namedview
     id="base"
     pagecolor="#ffffff"
     bordercolor="#666666"
     borderopacity="1.0"
     inkscape:pageopacity="0.0"
     inkscape:pageshadow="2"
     inkscape:zoom="1.979899"
     inkscape:cx="66.48684"
     inkscape:cy="37.800238"
     inkscape:document-units="mm"
     inkscape:current-layer="layer1"
     showgrid="false"
     fit-margin-top="0"
     fit-margin-left="0"
     fit-margin-right="0"
     fit-margin-bottom="0"
     inkscape:window-width="1920"
     inkscape:window-height="1005"
     inkscape:window-x="-9"
     inkscape:window-y="-9"
     inkscape:window-maximized="1" />
  <metadata
     id="metadata5">
    <rdf:RDF>
      <cc:Work
         rdf:about="">
        <dc:format>image/svg+xml</dc:format>
        <dc:type
           rdf:resource="http://purl.org/dc/dcmitype/StillImage" />
        <dc:title></dc:title>
      </cc:Work>
    </rdf:RDF>
  </metadata>
  <g
     inkscape:label="Layer 1"
     inkscape:groupmode="layer"
     id="layer1"
     transform="translate(-72.37962,-58.853595)">
    <path
       style="fill:#000000;fill-opacity:1;stroke:#000000;stroke-width:1.42308533;stroke-miterlimit:4;stroke-dasharray:none;stroke-opacity:1"
       id="path4579"
       d="m 107.3002,71.806634 c 10e-4,0.156172 0.01,0.312429 0.005,0.468519 -0.0153,0.449508 -0.0994,1.432452 -0.13327,1.817973 -0.14849,1.692727 -0.34212,3.379759 -0.53426,5.067977 -0.58671,4.443645 -1.2512,8.876964 -2.00412,13.295429 -0.32424,1.492156 -0.48004,3.026661 -0.85636,4.508369 -0.10314,0.406117 -0.27182,1.31444 -0.81489,1.526081 -0.20182,0.07865 -0.43075,-0.04612 -0.64613,-0.0692 -0.23868,-0.258986 -0.5174,-0.486117 -0.71605,-0.776951 -0.64051,-0.937784 -1.07256,-2.123938 -1.44086,-3.175291 -0.798037,-2.278089 -1.376767,-4.619994 -1.964492,-6.958081 -1.110672,-4.635077 -2.081084,-9.301941 -3.141675,-13.948495 -0.391978,-1.564499 -0.693811,-3.164271 -1.210432,-4.695956 -0.143978,-0.426852 -0.442241,-1.376504 -0.923934,-1.676266 -0.176902,-0.110086 -0.41272,-0.0576 -0.619076,-0.0864 -0.198766,0.147047 -0.425567,0.26231 -0.596297,0.441142 -1.170634,1.226157 -1.716477,2.983805 -2.23437,4.546708 -0.692932,2.091139 -0.894469,3.008278 -1.461784,5.173914 -1.243035,5.105537 -2.147512,10.283798 -3.079306,15.452589 -0.362823,1.979846 -0.687816,3.966321 -1.059129,5.944573 -0.0048,0.04491 -0.639679,-0.02346 -0.634846,-0.06836 v 0 c 0.140244,-2.008856 0.316308,-4.014976 0.523096,-6.018131 0.576884,-5.274764 1.302627,-10.550534 2.720344,-15.675291 0.284001,-0.917108 0.536697,-1.844501 0.852005,-2.751323 0.529182,-1.521932 1.192213,-3.144441 2.007679,-4.54602 0.454904,-0.781864 1.240285,-1.93768 2.054164,-2.471051 0.319092,-0.20911 0.712583,-0.272759 1.068874,-0.409139 0.283438,0.05828 0.595276,0.03811 0.850301,0.174828 0.675746,0.362268 1.003726,1.108432 1.290761,1.758605 0.66273,1.501173 1.05731,3.113137 1.556329,4.670071 1.299683,4.595428 2.389015,9.244734 3.410329,13.909441 0.528169,2.323054 1.054779,4.646988 1.614179,6.962788 0.26221,1.085446 0.49982,2.141492 0.88111,3.190458 0.10002,0.275162 0.24034,0.53396 0.36051,0.80094 0.34414,0.179383 0.3137,0.270173 0.47084,-0.326259 0.0856,-0.325041 0.11862,-0.661929 0.16359,-0.995039 0.20362,-1.508459 0.30121,-3.030446 0.49502,-4.540075 0.49005,-4.461911 1.07794,-8.915585 1.97968,-13.31567 0.49415,-2.417173 0.92498,-4.86211 1.66625,-7.218763 6.7e-4,-0.0072 0.10237,0.0042 0.10157,0.01135 z"
       inkscape:connector-curvature="0" />
    <path
       style="fill:#000000;fill-opacity:1;stroke:#000000;stroke-width:1.42308533;stroke-miterlimit:4;stroke-dasharray:none;stroke-opacity:1"
       id="path4581"
       d="m 79.705695,86.326397 c 1.339584,-0.517544 2.670124,-1.058146 3.9997,-1.600793 0.841804,-0.813117 0.851376,-1.031204 2.052255,-1.324377 0.450984,-0.110101 0.929892,-0.05388 1.385158,-0.144669 0.409799,-0.08172 0.801808,-0.236478 1.197634,-0.3704 0.722991,-0.244613 1.432445,-0.527561 2.14992,-0.787911 1.561295,-0.558097 3.134378,-1.084258 4.724437,-1.554508 0.343356,-0.117027 0.488376,-0.500225 0.789597,-0.667845 0.129564,-0.0721 0.287513,-0.07267 0.4317,-0.107237 0.362268,-0.08685 0.72664,-0.161312 1.092015,-0.233565 0.223581,-0.0056 0.72063,-0.194984 0.930469,-0.09044 0.159354,0.07939 0.247691,0.266916 0.407623,0.345134 0.0754,0.03688 0.1671,-0.01595 0.250723,-0.02316 0.07969,-0.0069 0.159462,-0.01274 0.239193,-0.01911 0.42468,-0.03231 0.850291,-0.04901 1.275931,-0.06208 0.0653,-0.0017 0.13072,-0.0034 0.19607,-0.005 0.007,-0.0021 0.0369,0.102047 0.0296,0.104137 v 0 c -0.065,0.0022 -0.13005,0.0044 -0.19508,0.0067 -0.42187,0.01717 -0.84369,0.03912 -1.263926,0.08117 -0.01224,0.0013 -0.477525,0.04873 -0.482076,0.05424 -0.09017,0.109166 -0.03153,0.294809 -0.115593,0.408742 -0.09199,0.124679 -0.68417,0.129265 -0.830986,0.189784 -0.341103,0.07142 -0.675967,0.155026 -1.010368,0.2538 -0.134586,0.03975 -0.262414,0.114345 -0.402439,0.123618 -0.390997,0.02589 -0.778303,-0.172901 -1.173757,-0.06498 -1.532696,0.568974 -3.046252,1.187476 -4.568993,1.782299 -0.265495,0.10523 -1.872955,0.739974 -2.110271,0.843993 -0.372604,0.163318 -0.757543,0.307363 -1.103442,0.521518 -0.353843,0.219073 -0.619802,0.566411 -0.98273,0.770083 -1.061161,0.595516 -1.387396,0.459349 -2.585002,0.503245 -0.954172,0.32332 -1.905353,0.647823 -2.883479,0.892827 -0.327189,0.08196 -0.795129,0.188646 -1.146478,0.223168 -0.103115,0.01013 -0.207203,0.0027 -0.310805,0.004 -0.0037,-8.74e-4 0.0097,-0.05328 0.01343,-0.05233 z"
       inkscape:connector-curvature="0" />
    <path
       style="fill:#000000;fill-opacity:1;stroke:#000000;stroke-width:1.46249843;stroke-miterlimit:4;stroke-dasharray:none;stroke-opacity:1"
       id="path4585"
       d="m 90.748811,59.640224 c -1.168164,0.451091 -2.313213,0.953733 -3.433275,1.510267 -1.97435,1.076891 -3.781456,2.451141 -5.388204,4.008696 -0.372959,0.36154 -0.724435,0.743865 -1.086654,1.1158 -1.413326,1.61592 -2.667734,3.377615 -3.624442,5.294246 -0.646371,1.294911 -0.758063,1.725599 -1.253753,3.089451 -0.901689,2.73905 -1.493215,5.579519 -1.758361,8.447142 -0.05247,0.567445 -0.0768,1.137062 -0.115203,1.705594 -0.05504,2.054606 -0.01479,4.137142 0.410116,6.158403 0.246781,1.173911 0.40614,1.498085 0.808688,2.619367 0.863247,2.074556 2.155187,3.965742 3.860827,5.464506 0.356048,0.31286 0.7426,0.590502 1.113902,0.88576 2.53111,1.893624 5.542957,2.896004 8.56309,3.749434 2.999187,0.81512 6.081019,1.25286 9.166131,1.60375 2.308877,0.22614 4.616207,0.56971 6.941467,0.50355 1.54664,-0.0744 2.97263,-0.6016 4.22429,-1.48854 0.24923,-0.1766 0.48054,-0.37641 0.72081,-0.56462 1.59618,-1.38307 2.66117,-3.21313 3.68956,-5.015942 1.25656,-2.134971 1.92981,-4.50071 2.46094,-6.891386 0.408,-2.13598 0.73513,-4.300123 0.81753,-6.47513 0.0157,-0.416644 0.008,-0.833824 0.0126,-1.250736 -0.0262,-1.642668 -0.24029,-3.286586 -0.65163,-4.879993 -0.23739,-0.919627 -0.43422,-1.435582 -0.74188,-2.330032 -0.65113,-1.899732 -1.58899,-3.677215 -2.66315,-5.374632 -0.88436,-1.330089 -1.89202,-2.575902 -3.01664,-3.71625 -1.07528,-1.075292 -2.24737,-2.042645 -3.49665,-2.915054 -1.12096,-0.778174 -2.37112,-1.341625 -3.64251,-1.835383 -1.03444,-0.412814 -2.0833,-0.777441 -3.157182,-1.076614 -0.541087,-0.142909 -1.092143,-0.244214 -1.642951,-0.342815 -0.01392,-0.0056 0.06616,-0.198949 0.08008,-0.193386 v 0 c 0.565008,0.07922 1.128879,0.167701 1.683835,0.300975 1.099858,0.264092 2.173458,0.613592 3.231998,1.008099 1.3018,0.495284 2.57777,1.066295 3.72973,1.850143 1.27815,0.874033 2.47436,1.853809 3.5735,2.939458 1.13067,1.16893 2.15496,2.431946 3.08631,3.76015 1.15788,1.69747 2.18075,3.482575 2.89466,5.40892 0.13972,0.388988 0.29203,0.773832 0.41917,1.166967 0.65171,2.015161 0.97024,4.120603 1.0266,6.231589 10e-4,0.427624 0.0137,0.855369 0.003,1.282869 -0.0543,2.21054 -0.40588,4.404877 -0.82651,6.572637 -0.24296,1.050782 -0.32719,1.501098 -0.64389,2.530614 -0.48122,1.564309 -1.13769,3.069279 -1.9486,4.495936 -1.07592,1.851996 -2.2496,3.683676 -3.899,5.100486 -0.2519,0.19523 -0.49549,0.40131 -0.75572,0.58569 -1.33352,0.94484 -2.77192,1.49159 -4.41318,1.63678 -0.38414,0.0183 -0.76795,0.0451 -1.1524,0.0549 -2.0773,0.0523 -4.153436,-0.17116 -6.221813,-0.31891 -3.137218,-0.32808 -6.273137,-0.74412 -9.322808,-1.564 -1.335988,-0.38846 -1.900814,-0.52309 -3.200264,-1.01894 -1.968406,-0.75112 -3.855675,-1.72235 -5.527349,-2.9964 -0.378242,-0.31645 -0.770846,-0.617028 -1.134722,-0.949324 -1.743813,-1.592506 -3.081323,-3.560089 -3.988532,-5.717307 -0.163089,-0.442752 -0.345331,-0.879144 -0.489262,-1.32827 -0.798025,-2.49014 -0.999122,-5.121386 -0.954319,-7.717881 0.08778,-1.437826 0.09894,-2.072309 0.297685,-3.504443 0.323738,-2.332831 0.889045,-4.633404 1.623415,-6.872572 0.206479,-0.54468 0.394146,-1.096606 0.619436,-1.634042 1.075378,-2.565343 2.606835,-4.922734 4.478533,-6.996716 0.377283,-0.37881 0.742688,-0.769402 1.131851,-1.136428 1.685507,-1.589638 3.602075,-2.954263 5.737115,-3.898283 1.192281,-0.492731 2.424289,-1.004998 3.722369,-1.136728 0.0042,-0.0014 0.02562,0.05716 0.0214,0.05865 z"
       inkscape:connector-curvature="0" />
  </g>
</svg>
